/* XPM */
static char *_ba8384c4aba48cb90a126c289fe8877mlQtL57MfWgWfe41[] = {
/* columns rows colors chars-per-pixel */
"64 64 143 2 ",
"   c #151515",
".  c #181717",
"X  c #161917",
"o  c #181817",
"O  c #191718",
"+  c #171A18",
"@  c #1B1C1B",
"#  c #152018",
"$  c #1B221D",
"%  c #20201F",
"&  c #1F2120",
"*  c #1E2922",
"=  c #232424",
"-  c #222C25",
";  c #282827",
":  c #272828",
">  c #2B2C2B",
",  c #213227",
"<  c #24352A",
"1  c #2E312F",
"2  c #25382D",
"3  c #30302F",
"4  c #2F3030",
"5  c #2A3E31",
"6  c #333433",
"7  c #353A36",
"8  c #383837",
"9  c #373838",
"0  c #3C3D3C",
"q  c #403F3F",
"w  c #2C4334",
"e  c #2C4B35",
"r  c #2E4D38",
"t  c #35473B",
"y  c #3F403F",
"u  c #324A3A",
"i  c #2F503A",
"p  c #30533B",
"a  c #40403F",
"s  c #3F4140",
"d  c #3B4C41",
"f  c #365541",
"g  c #3A5242",
"h  c #375942",
"j  c #395A44",
"k  c #3B5E49",
"l  c #3A6147",
"z  c #3D644B",
"x  c #3F684F",
"c  c #424342",
"v  c #474847",
"b  c #484947",
"n  c #474848",
"m  c #4C4C4B",
"M  c #504F4E",
"N  c #4F504E",
"B  c #44584A",
"V  c #51504F",
"C  c #4B5850",
"Z  c #545554",
"A  c #575C58",
"S  c #5C5C5B",
"D  c #40664C",
"F  c #426A4F",
"G  c #426D51",
"H  c #5E635E",
"J  c #457354",
"K  c #487757",
"L  c #467A56",
"P  c #487957",
"I  c #477758",
"U  c #477958",
"Y  c #4A7E5B",
"T  c #646563",
"R  c #696967",
"E  c #6B6C6B",
"W  c #706F6D",
"Q  c #6B716C",
"!  c #70706E",
"~  c #737372",
"^  c #777877",
"/  c #7A7977",
"(  c #7C7D7B",
")  c #4D845E",
"_  c #4E885F",
"`  c #4E8760",
"'  c #4F8860",
"]  c #7F807E",
"[  c #848583",
"{  c #888785",
"}  c #868885",
"|  c #898886",
" . c #8D8D8B",
".. c #8F908D",
"X. c #91918E",
"o. c #959593",
"O. c #979796",
"+. c #989794",
"@. c #979897",
"#. c #999996",
"$. c #9C9D9A",
"%. c #A09F9B",
"&. c #9FA09E",
"*. c #A2A29E",
"=. c #A4A4A2",
"-. c #A7A6A3",
";. c #A7A8A6",
":. c #A9A9A6",
">. c #AAAAA7",
",. c #ADADAA",
"<. c #B2AFAB",
"1. c #AFB0AD",
"2. c #B1B0AD",
"3. c #B2B2B0",
"4. c #B5B5B2",
"5. c #B8B7B3",
"6. c #BAB9B5",
"7. c #BBBBB7",
"8. c #BDBDB9",
"9. c #C1BFBA",
"0. c #C3C2BE",
"q. c #C6C5C2",
"w. c #C9C7C3",
"e. c #CBCAC5",
"r. c #CBCBC7",
"t. c #CECDC9",
"y. c #D0CECA",
"u. c #D2D1CC",
"i. c #D4D2CD",
"p. c #D5D3CE",
"a. c #D7D5D0",
"s. c #D9D7D2",
"d. c #DAD8D3",
"f. c #DCDAD5",
"g. c #DFDDD8",
"h. c #E1DED9",
"j. c #E2E0DA",
"k. c #E4E1DB",
"l. c #E7E3DE",
"z. c #E7E4DF",
"x. c #E8E5DF",
"c. c #E9E6E0",
"v. c #ECE9E3",
/* pixels */
"e p p p r r r p p p p p p p p p p p p p p p i r r i p p p p i r r p p p p i r r p p i i p i r r r i p i i i r r r r r r r r r w ",
"L ) ) ' ) ) ) ) ' ' ) ) ` ' ' ' ' ' ' ) ) ' ) ) ) ) ) ' ) ) ) ) ) ` ' ' ' ) ) ) ' ' ) ) ` ) Y ) ) ) ) ) ) ) Y Y ) ) Y Y Y ) ) G ",
"J Y ) ) ) ) ` ' ) ) ) Y ) ) ) ) ) ) ) Y Y ) ` ) ) ) Y ) ) Y ) ) ) ) ) ) ) ) ) ) ) ) ) ) ) ) Y ) ) ) Y Y ) ) Y Y ) ) Y Y Y ) ) G ",
"L ) ) Y ) ) ` ' ) Y ) ) ) ' ) ` ) Y ) ) ) ) ) Y ) ) ) Y ) ) ) ) ) ) ) Y ) ) ) ) ) ) ) ) ) ) ) ) ) ) ) ) ) ) ) ) ) Y ) ) ) ) ) J ",
"L ) ) Y ) ) ) ) ) Y ) ` ` ) ) ) ) ) ) ) ) ) ) Y ) ) ) Y ) ) ) ` ) ) ) Y ) ) ` ) ) Y ) ) ) ) ) ) ) ) ` ) ) ) ) ) ) Y ) ) ) Y ) J ",
"L ) ) ) Y Y Y ) _ ) ) ) ) ) ) Y ) ) ) ) ) Y ) ) Y Y Y Y ) ) ) ) ) Y ) ) ) ) ) ` ) ) ) Y ) ) ) Y Y ) ` ) Y ) ) ` ) ) ) ) ) Y ) J ",
"J ) ) ) ) ) Y ) _ ) ) ) ) ) ) ) ) ) ) ) ) ) ) ) ) ) ) ) ) ) ) ) ) ) ) ) ) ) ` ) ) ) ) ) Y ) ) ) ) ) ) Y Y ) ) ) ) ) ) ) ) Y ) J ",
"J Y ) ) ) ) Y ) _ ) ) Y ) ) ) ) ) ) ) ) _ _ ) ) ) ) ) ) ) ) Y Y ) ) ) ) Y Y ) ) ) ) ) ) Y Y Y ) ) ) Y Y Y ) ) Y ) ) Y ) ) Y ) J ",
"J ) ) ) ) Y ) ) ` ) ) ) ` ) Y ) ) Y ) ' ' ' k - - - - , , , , , , , , - * * * z ' ` ) ) ) ) ) ) ` ) Y ) ) ) ) Y ) ) ) ) ) ) ` J ",
"L ) ) ) ) ) ) ) ) ) ) ) ) ) ) ) ) ) ` F f h 7 = = = =   @ = = = =   @ 0 b V m g p p F ' ` ) ) ` ) ) ) ) ) ) ) ) ) _ _ ) ) ) ) G ",
"L ) ) Y ) ) ` ` ) Y ) ) ) ) ) ) ) L Y 5     > c c c 0 @ = 1 4 6 4 @ 6  .6.u.t.R @ = g Y L ) ) ) ) Y ) ` ) ) ) ) ) ) ) Y ) ) ) F ",
"L ` ) ) ) ) ` ) ) ) ) ) ) ) ) ` r # # > 0 0 0 c c c 0 0 >   > 6 6   6 O.w.h.h.0.:.:.H X # h ' ) ) Y ) ` ' ) ) ) ) ) ) ) ) ) ) G ",
"L ) ) ) ) ) ) ) ` ) ) ) ) ) Y z < O @ > c c s s c s s c 6 % = ; > c T 2.i.k.k.a.t.t.X.V v B F ) ) Y ) ` ) ) ) ) ) ) ) ) ) ) ) J ",
"J ) ) ) ) ) Y ) ' ) ) ) Y U G $ @ > 0 s c s c c c a c c 0 0 @   = $.e.k.x.x.z.z.z.z.k.d.3.T $ K ) ) ) ) ) ) ) Y ) ) ) ` ) Y ) J ",
"J Y ) ) ) Y ) ) ) ) ) ) ) p * & > 0 0 y s s s c c s c c 9 > @ v <.i.h.z.x.c.x.x.x.x.x.k.d.-.~ 7 p ) ) ) ) ) ) ) ) ` ) ) Y ) ) G ",
"L ) ) ) ) ) ) ) ) ) ) ) G d > = 6 0 0 0 0 y 0 0 y y 0 0 > =   Z h.h.j.x.x.x.x.x.x.x.z.x.c.e.*.q t F ) ` ) ) ) ) ) ) ) ) Y ) ) F ",
"L ) ) ) ) ) ) ) ) ) ) J $ R @.> 3 0 y 0 0 0 0 0 0 s 0 = @     m 0.8.e.z.x.x.x.x.x.c.x.z.z.k.s.&.T @ J ` ) ) ` ) ) ) ) ) ) Y ) J ",
"L ' ) ) ) Y ) ) ) ' h t Q ,.6.= @ = 0 0 0 0 9 4 > = @   8 S ^ ! Z &.0.k.x.x.x.x.x.c.x.x.x.x.k.u.(   < h ) ) ) ) ) ) ) ) ) ) ) J ",
"L ) ) ) Y Y ) ) ) ' 5 > :.a.u.Z = @ 6 9 9 9 > : s 0 0 a E $.0.#.0 ( $.s.k.x.x.x.x.x.x.x.z.z.x.v.X.    5 ) ) ) ) ) Y ) ) ) ' ' J ",
"J Y ) ) ) ) ) ) ` ' w 9 u.c.z.h.!     o @ @   > $.5.q.d.h.k.z.u.-.0 y 8.g.x.x.x.z.z.z.x.x.z.x.v.X.    w ` ) ) Y ) ) Y ) ) ) ' J ",
"J ) ) ) ) ) ) ` P w Q O.h.c.c.v.~   @ m [ +.#.*.t.s.g.x.c.c.c.h.u.$.~ Z :.u.x.c.x.x.x.x.x.x.k.u.[   @ - 5 J ) ) ) ) ) ) ) ) ) J ",
"L ` _ ) ) ) ) ' G @  .a.k.c.z.j.W @ b  .u.c.v.v.c.c.c.c.c.c.c.c.c.d.-.0 ( ;.d.f.f.f.f.g.z.x.g.-.T   = @   x ) ) ) ) ) ) ) Y ) G ",
"L _ ) ) ) ) ) ` J = %.c.c.c.k.e.T 3 8.d.c.c.c.x.x.x.c.c.x.c.c.c.x.c.f.8.m c 1.3.4.4.4.8.h.k.t.8 o o > =   z ) ) ) Y ) ) ) ) ) F ",
"J ) ) ) ) ) ) u d | q.c.c.c.s.~ 8 9 u.z.c.c.c.x.x.c.c.c.x.x.c.x.x.x.z.g.o.E b c c c c v m m b @ @ = > > = - w ) ) ) ) ) ) ) ) G ",
"J ) ) ) ) ) ) , 9 :.i.c.c.c.t.6 = V d.c.c.x.x.c.x.x.x.x.x.x.c.c.x.x.c.z.-.R o   o o o o         @ > 6 > =   * ) ) ) ) ) ) ) ) G ",
"J ) ) Y ) _ ) , c a.k.c.x.c.e.= R 6.k.c.c.x.c.c.c.x.c.c.c.c.c.c.x.x.c.x.| b   > 0 0 0 0 0 1 =   = 6 9 6 =   * ) ) ) Y ) ) ) ) F ",
"L ) ) ) ) ) Y , v g.c.x.x.d.2.= ( d.z.c.c.c.c.x.c.c.c.c.c.c.c.c.c.c.j.e.S > > 9 0 0 0 0 0 0 6 > = = 9 6 = . * ) ) ) ) ) ) ) ) G ",
"L ) ) ) ) ) Y , v h.c.x.c.q...@ { v.c.x.x.x.x.x.x.x.c.x.x.x.c.c.c.c.d.:.a @ 0 0 0 0 0 0 0 0 0 0 >   6 6 =   * ) ) ) ) ) ) ) ) J ",
"L ) Y ) ) ) ) , v g.x.c.v.{ >   | v.c.x.c.c.c.x.x.x.x.c.c.x.c.c.c.v.9.1 > 9 0 0 0 0 0 0 0 0 0 0 >   6 6 =   * ) ) ) ) ) ) ) ) J ",
"L ) ) ) ) ) ) , v h.c.k.u.E @   | v.c.x.c.x.x.x.x.x.c.x.c.c.x.c.x.g.,.@ > 0 0 0 0 0 0 0 0 0 0 0 > @ > > =   * Y ) ) ) ) ) ) ' J ",
"L ) ) ) ) ) ) , c u.u.0.-.Z     [ k.z.c.x.z.x.x.x.x.x.x.c.c.x.x.z.w.O.@ 6 y 0 0 0 0 0 0 0 0 0 0 6 = = = =   * L Y Y ) Y Y ) ` J ",
"J ) ) ) ) Y ) , 9 -.E a ; @     ~ w.k.x.x.x.x.x.z.x.x.x.x.x.x.x.j.T 6 = 9 y 0 s 0 0 0 0 0 0 0 0 6 = o @ =   * ) ) Y ) ) ) ) ` J ",
"J ) ) ) Y Y ) < = Z 0 = @ = > = v ~ 4.a.c.x.x.z.x.x.x.x.x.x.x.j.u.c   6 0 0 0 0 0 0 0 0 0 0 0 6 > =     @   - ) ) ) ) ) ) ) ) J ",
"L ) ) Y Y ) ) <       @ = 6 0 0 = :  .0.k.x.x.z.z.x.x.x.x.x.x.s.6.a @ 0 0 0 0 0 0 0 0 0 0 0 0 > > = o   @   - ) ) ) ) ) ) Y ) J ",
"L ` ) ) ) ) ) <   = > > 6 9 0 0 6 > > ( 0.k.x.x.x.x.x.x.x.x.c.q. .6 @ 0 0 0 0 0 0 0 0 0 0 9 > > > =   c [ 6 * ) ) ) ) ) ) ) ) J ",
"L ) ) ) ) ) Y ,   = 6 0 0 0 0 0 0 9 = m ] u.h.x.x.x.k.s.s.a.e.$.V = @ 6 0 0 0 0 0 0 0 0 9 > > > : =   m -.0 * Y ) ) ) ) ) ) ) G ",
"J Y ) ) ) ) ) , . = 6 0 0 0 0 0 0 0 0 = 1 4.a.x.x.k.f.0.8.8.-.E o   o = 9 0 0 0 0 0 0 0 > > > > = &   N *.0 * Y ) ) ) ) Y ) ) F ",
"L ) ) ) ) ) ) ,   = 6 0 0 0 0 0 0 0 0 6 1 c } q.w.[ b v v c 0 m ^ 9 @   > 6 0 0 0 0 6 > > > > = @ @ !  .#.0 * ) ) ) ) ) ) ) ) G ",
"L ) ) ) ) ) ) ,   = > 9 0 0 0 0 0 0 0 0 6   m } } Z = 0 v V M ~ 5./ A y > > 9 9 9 6 > > > > = = > b *.:.@.0 * ) ) ) ) ) ) ) ) J ",
"L Y ) ) Y Y ) <   = = > 0 0 0 0 0 0 0 0 6 = @   @ 9 A  .4.k.h.k.k.k.e.o.0   : > > > > > > = =   m *.,.-.O.0 * ) ) ) Y ) ) ) ) J ",
"J ) Y ) ) ) ) l w @ = > 0 0 0 0 0 0 0 0 6 @ = 8 | *.2.0.i.c.c.k.k.x.f.0. .A   = > > > > = @ @ = S ,.1.} c d h ) ) ) ) ) ) ) ) G ",
"J ) ) ) ) ) ) Y l o = > 6 0 0 0 0 0 0 0 6 @ 9 T i.x.c.x.x.x.x.z.z.k.k.k.q.o.9 > = = : = & @ @ 0 / 4.,.~   j J ) ) ) ) ) ) ) ) F ",
"L ) ) ) ) ) ) U k + @ = > 9 0 0 0 0 0 0 6   S :.f.k.k.z.x.z.x.x.z.k.k.k.k.y.-.Z o = = @   $ >  .4.3.:.E o j J ) ) ) ) Y ) ) ) J ",
"L ) ) ) ) ) ) ) J f - @ : > 6 0 0 0 0 0 >   ! i.k.z.k.z.z.z.z.z.z.z.z.k.i.0.,. .R =   @ = Z  .,.4.:.Z d f J ) ) ) ) ) ) ) ) ` J ",
"L ) ) ) Y Y ) ) ) G 2   = > > 9 0 0 0 9 >   / c.l.k.x.x.z.z.z.z.k.i.u.u.0.6.2.,.o.= @ > v ( 4.4.2.*.> < G ) ` ) ) ) ) ) ) ) ) G ",
"L ) ) Y ) ) ) ) ) J 2   @ = > > > > > > >   / x.k.k.k.z.k.k.z.k.k.0.6.6.6.8.8.7.*.= n ~ -.,.4.4.,.$.1 < G ) ) ) ) ) ) Y Y ) ) G ",
"L ) ) ) ) ) Y Y Y ) l w @ = > : > > > > > Z X.e.e.e.e.e.e.e.e.e.e.9.6.6.6.6.6.4.$.= Z } 1.4.4.2.[ c g l U ) ) Y ) ) ) ) ) ) ) G ",
"L ) ) ) ) ) Y Y Y ) Y F - = = = : > > = 6 [ -.6.6.6.6.6.6.6.6.6.6.6.6.6.6.6.6.2.#.= S O.3.4.2.#.T * x U ) ) ) Y ) ) ) ) ) Y ) J ",
"J Y ) ) ) ) Y ) ) ) ) ) J 5   = = > > @ 3 :.6.6.6.7.7.7.7.6.7.6.7.7.6.6.6.6.7.2.@.= ~ 4.4.4.-.9 5 x J Y ) ) ) ) ) ) ) Y Y ) ` J ",
"J ) ) ) ) ) ) ) ) ) ) ) ) l 5 @ @ = = @ >  .:.6.6.6.6.6.7.7.8.6.6.7.6.6.6.6.4.( b @ ~ 3.2.[ Z g z Y Y ) ) ) ) ) ) ) ) ) ) ) ) G ",
"L ) ) Y ) ) ) ) ) ) ) ) ) Y x * @ @ @ = 0 T  .2.6.6.6.6.7.7.7.7.7.7.7.6.4.2.,.Z     T o.o.A * J ' ` ` ` ` ) ) ) Y Y ) ) ) ) ) F ",
"J ) ) ) ) ) Y ) ) ) Y Y ) ) Y x 2     S o.> n ( 4.8.8.8.7.7.7.7.7.7.7.6.:.$.-.Z o @ @ @ @ u J ) ) ) ) ) ) ) Y Y ) ) Y ) ) ) ) F ",
"J ) ) ) ) ) ) ) ) ) ) ) ) ) ) U h w 5 C S @ > m ( #.:.6.8.8.6.6.8.8.6.4./ A T 9     * 5 w l Y ) ) ) ) ) ) ) ) ) ) ) ) ) ) ) ) G ",
"L ) ) ) Y Y ) Y Y ) ) ) ) ) ) ` Y G G r o @ @ @ 0 T  .,.2.3.2.2.2.3.2.-.c   + + + o w G J ) ) ) ) ) ) ) Y ) ) ) ) ) ) ) ) Y ) J ",
"L ) ) Y ) ) ) ) ) Y ) ) ) ) ) ` ) ) ) J k k 5   @ = > 3 6 6 6 6 6 6 6 3 @     5 k j G Y ) ) ) ) ) ) Y Y ) ) ) ) ) ) ) Y Y ) ) J ",
"J ) ) ) ) ) ) ) ) ) ) ) ) ) ) ) ) ) ) ) J J h < 2 2 2 2 < < < < < < < < 2 2 < j J G U ) ) ) ) ) ) ) ) ) ) ) ) ) ) ) ) ) ) ) ) G ",
"J ) ) ) ) ) ) ) ) ) ) Y ) ) ) Y ) ) ) ) ) ` Y G G G G G G G G G G G G G G G G I Y Y ) ) ) Y Y ) ) ) ) ) ) ) ) Y ) ) ) ) ) Y Y F ",
"J ) ) ) ) ) Y ) ) ) ) ) Y ) ) ) ) ) ) ) ) ) ) Y Y ) ) ) ) ) ) ) ) ) ) Y Y ) ) ) Y Y Y ) ) ) ) Y Y Y ) ) Y ) ) ) ) ) ) Y Y ) ) G ",
"J ) ) Y ) ) Y ) ) ) ) ) ) ) ) ) ) ) ) ) ) ) ) ) ) ) ) ` ) ) ) ) ) ) ) ) ) ) ) ) ) Y Y ) ) ) ) Y Y Y ) ) Y ) ) ) ) Y ) Y Y ) ) G ",
"J Y Y Y Y Y ) Y Y ) ) ) ) ) ) ) ) Y ) ) ) Y ) ) ) ) ) ) ) Y ) ) ) ) ) Y ) ) ) ) ) ) Y Y ) ) ) Y ) ) ) ) ) ) ) ) ) Y ) ) ) ) ) G ",
"L ) ) Y ) ) ) ) ) ) ) ) ) ) Y ) ) ) ) ) ) ) ) ) ) ) ) ) ) ) ) ) ) ) ) ) ) ) Y ) ) ) ) ) Y ) ) ) ) Y ) ) ) ) ) Y Y Y ) Y Y Y ) G ",
"L ) ) Y ) ) ) ) ) ) Y Y ) ) Y ) ) ) ) ) ) ` ) ) ) ) ) ) ) ) ) ) ) ) ) ) ) ) Y ) ) ) ) ) Y ) ) ) ) Y ) ) ) ) ) Y Y ) ) Y Y Y ) G ",
"J Y Y Y ) ) Y Y Y ) ) ) ) ) Y ) ) Y Y ) ) ) ) Y ) ) ) Y Y ) ) ) Y ) ) ) ) Y ) ) ) Y Y Y ) ) ) Y ) ) ) ) Y Y Y ) ) ) Y Y Y ) ) F ",
"J Y Y Y Y ) Y Y Y Y ) ) ) Y Y Y Y Y Y Y Y ) Y Y ) ) Y Y Y Y ) Y Y Y Y Y Y Y Y ) ) Y Y Y ) ) ) Y Y ) ) Y Y Y Y ) ) Y Y Y Y Y Y D "
};
