/* XPM */
static char *da6c4833e3994cf3b6d4a945b5041a2cjkNqMgkmx3W90klH[] = {
/* columns rows colors chars-per-pixel */
"64 64 215 2 ",
"   c #00490B",
".  c #0B4F1E",
"X  c #00551C",
"o  c #005B1B",
"O  c #00611F",
"+  c #025D23",
"@  c #095E24",
"#  c #115627",
"$  c #245C35",
"%  c #325A38",
"&  c #006322",
"*  c #006926",
"=  c #066629",
"-  c #0A662C",
";  c #026A29",
":  c #0A6B2E",
">  c #106629",
",  c #007924",
"<  c #01742D",
"1  c #0B712D",
"2  c #007A2C",
"3  c #0A7529",
"4  c #046C34",
"5  c #0D6D31",
"6  c #036F3A",
"7  c #156E38",
"8  c #047534",
"9  c #097533",
"0  c #007C34",
"q  c #0B7935",
"w  c #03753A",
"e  c #047C3B",
"r  c #0B7D3C",
"t  c #0F7438",
"y  c #137236",
"u  c #107B37",
"i  c #147439",
"p  c #127D3B",
"a  c #1A7639",
"s  c #2B763D",
"d  c #126F42",
"f  c #017C43",
"g  c #0D7E42",
"h  c #087845",
"j  c #127E40",
"k  c #157C4A",
"l  c #187E4B",
"z  c #197543",
"x  c #286B41",
"c  c #257742",
"v  c #247D45",
"b  c #287F52",
"n  c #387F53",
"m  c #367D55",
"M  c #33744A",
"N  c #517E55",
"B  c #00862C",
"V  c #008131",
"C  c #01823B",
"Z  c #0C833C",
"A  c #028B3D",
"S  c #13823E",
"D  c #18823D",
"F  c #009239",
"G  c #0E8141",
"H  c #088B46",
"J  c #138443",
"K  c #1A8643",
"L  c #158A44",
"P  c #1A8A46",
"I  c #1B844B",
"U  c #168A49",
"Y  c #1C8C4A",
"T  c #15854A",
"R  c #02924D",
"E  c #1C914B",
"W  c #19994F",
"Q  c #1E8955",
"!  c #1C8453",
"~  c #16965B",
"^  c #218A47",
"/  c #23864A",
"(  c #218C4C",
")  c #29864D",
"_  c #308F4F",
"`  c #21914C",
"'  c #228755",
"]  c #278D51",
"[  c #2A8D5B",
"{  c #2D8A51",
"}  c #358354",
"|  c #3A8356",
" . c #3E8559",
".. c #338E59",
"X. c #3E8A5C",
"o. c #229353",
"O. c #2E9358",
"+. c #319058",
"@. c #349A5E",
"#. c #3C965B",
"$. c #3B8C64",
"%. c #3B8763",
"&. c #369D60",
"*. c #3E9B65",
"=. c #3D9365",
"-. c #2A9D72",
";. c #3AA567",
":. c #3BA97C",
">. c #428A5E",
",. c #50845D",
"<. c #468E61",
"1. c #4D8E67",
"2. c #57886A",
"3. c #578264",
"4. c #439263",
"5. c #419967",
"6. c #419D6A",
"7. c #4A9567",
"8. c #539C6A",
"9. c #508A72",
"0. c #469E74",
"q. c #4D9D74",
"w. c #559771",
"e. c #729B79",
"r. c #44A36D",
"t. c #44A96E",
"y. c #46A176",
"u. c #4AA472",
"i. c #46AE74",
"p. c #4CA974",
"a. c #4CA97D",
"s. c #55A474",
"d. c #5BA376",
"f. c #52A976",
"g. c #5EA77A",
"h. c #5DAD7D",
"j. c #52A97E",
"k. c #4EB178",
"l. c #57B47D",
"z. c #63AB7E",
"x. c #6EA87F",
"c. c #57A481",
"v. c #4DB880",
"b. c #5EB381",
"n. c #65AE81",
"m. c #72AD8D",
"M. c #78AF85",
"N. c #65B283",
"B. c #69B385",
"V. c #6DB589",
"C. c #6DBA8B",
"Z. c #66B887",
"A. c #72B48C",
"S. c #72BB8E",
"D. c #78B288",
"F. c #75B090",
"G. c #78BD91",
"H. c #59C595",
"J. c #71C68F",
"K. c #76C495",
"L. c #79C496",
"P. c #79C698",
"I. c #7DCE9A",
"U. c #69C28A",
"Y. c #85A88C",
"T. c #8EA792",
"R. c #83B998",
"E. c #8DCAA4",
"W. c #9CCEA9",
"Q. c #81D0A1",
"!. c #91D2A7",
"~. c #82D6B2",
"^. c #9DDFBB",
"/. c #AACFAE",
"(. c #AECFB4",
"). c #B8CDBE",
"_. c #8AE0AF",
"`. c #C0D3BF",
"'. c #A5DDC2",
"]. c #ABECC2",
"[. c #D9DDD3",
"{. c #D0D7CA",
"}. c #E8DED2",
"|. c #C8E5CC",
" X c #C7EAD6",
".X c #D1E5D2",
"XX c #D4ECD7",
"oX c #D6EFD9",
"OX c #DAEEDA",
"+X c #D8E6D7",
"@X c #C4F2D5",
"#X c #D3F1DB",
"$X c #DBF1DD",
"%X c #D0F8DD",
"&X c #DAE4C9",
"*X c #E9E8D8",
"=X c #D8ECE1",
"-X c #CFFCE5",
";X c #D5F5E1",
":X c #DDF4E0",
">X c #D7FEE7",
",X c #DBFCE4",
"<X c #D7FDE8",
"1X c #DFFFF4",
"2X c #E2F3E0",
"3X c #E4FDEB",
"4X c #EAFFEE",
"5X c #EBF4E9",
"6X c #F2F4E6",
"7X c #FEFCEF",
"8X c #FAF7EA",
"9X c #E6FFF4",
"0X c #FEFEF2",
"qX c #FFFBF9",
"wX c #F7EAE2",
/* pixels */
"0 0 0 0 0 0 0 0 0 0 0 0 0 0 0 0 0 0 0 0 0 0 0 0 0 0 0 0 0 0 0 0 0 0 0 0 0 0 0 0 0 0 0 0 0 0 0 0 0 0 0 0 0 0 0 0 0 0 0 0 0 0 0 0 ",
"0 0 0 0 0 0 0 0 0 0 0 0 0 0 0 0 0 0 0 0 0 0 0 0 0 0 0 0 0 0 0 0 0 0 0 0 0 0 0 0 0 0 0 0 0 0 0 0 0 0 0 0 0 0 0 0 0 0 0 0 0 0 0 0 ",
"0 0 0 0 0 0 0 0 0 0 0 0 0 0 0 0 0 0 0 0 0 0 0 0 0 0 0 0 0 0 0 0 0 0 0 0 0 0 0 0 0 0 0 0 0 0 0 0 0 0 0 0 0 0 0 0 0 0 0 0 0 0 0 0 ",
"0 0 0 0 0 0 0 0 0 0 0 0 0 0 0 0 0 0 0 0 0 0 0 0 0 0 0 0 0 0 0 0 0 0 0 0 0 0 0 0 0 0 0 0 0 0 0 0 0 0 0 0 0 0 0 0 0 0 0 0 0 0 0 0 ",
"0 0 0 0 0 0 0 0 0 0 0 0 0 0 0 0 0 0 0 0 0 0 0 0 0 0 0 0 0 0 0 0 0 0 0 0 0 0 0 0 0 0 0 0 0 0 0 0 0 0 0 0 0 0 0 0 0 0 0 0 0 0 0 0 ",
"0 0 0 0 0 0 0 0 0 0 0 0 0 0 0 0 0 0 0 0 0 0 0 0 0 0 0 0 0 0 0 0 0 0 0 0 0 0 0 0 0 0 0 0 0 0 0 0 0 0 0 0 0 0 0 0 0 0 0 0 0 0 0 0 ",
"0 0 0 0 0 0 0 0 0 0 0 0 0 0 0 0 0 0 0 0 0 0 0 0 0 0 0 0 0 0 0 0 0 0 0 0 0 0 0 0 0 0 0 0 0 0 0 0 0 0 0 0 0 0 0 0 0 0 0 0 0 0 0 0 ",
"0 0 0 0 0 0 0 0 0 0 0 0 0 0 0 0 0 0 0 0 0 0 0 0 0 0 0 0 0 0 0 0 0 0 0 0 0 0 0 0 0 0 0 0 0 0 0 0 0 0 0 0 0 0 0 0 0 0 0 0 0 0 0 0 ",
"0 0 0 0 0 0 0 0 0 0 0 0 0 0 0 0 0 0 0 0 0 0 0 0 0 0 0 0 0 0 0 0 0 0 0 0 0 0 0 0 0 0 0 0 0 0 0 0 0 0 0 0 0 0 0 0 0 0 0 0 0 0 0 0 ",
"0 0 0 0 0 0 0 0 0 0 0 0 0 0 0 0 0 0 0 0 0 0 0 0 0 0 0 0 0 0 0 0 0 0 0 0 0 0 0 0 0 0 0 0 0 0 0 0 0 0 0 0 0 0 0 0 0 0 0 0 0 0 0 0 ",
"0 0 0 0 0 0 0 0 0 0 0 0 0 0 0 0 0 0 0 0 0 0 0 0 0 0 0 0 0 0 0 0 0 0 0 0 0 0 0 0 0 0 0 0 0 0 0 0 0 0 0 0 0 0 0 0 0 0 0 0 0 0 0 0 ",
"0 0 0 0 0 0 0 0 0 0 0 0 0 0 0 0 0 0 0 0 0 0 0 0 0 0 0 0 0 0 0 0 0 0 0 0 0 0 0 0 0 0 0 0 0 0 0 0 0 0 0 0 0 0 0 0 0 0 0 0 0 0 0 0 ",
"0 0 0 0 0 0 0 0 0 0 0 0 0 0 0 0 0 0 0 0 0 0 0 0 0 0 0 0 0 0 0 0 0 0 0 0 0 0 0 0 0 0 0 0 0 0 0 0 0 0 0 0 0 0 0 0 0 0 0 0 0 0 0 0 ",
"0 0 0 0 0 0 0 0 0 0 0 0 0 0 0 0 0 0 0 0 0 0 0 0 0 0 0 0 0 0 0 0 0 0 0 0 0 0 0 0 0 0 0 0 0 0 0 0 0 0 0 0 0 0 0 0 0 0 0 0 0 0 0 0 ",
"0 0 0 0 0 0 0 0 0 0 0 0 0 0 0 0 0 0 0 0 0 0 0 0 0 0 0 0 0 0 0 0 0 0 0 0 0 0 0 0 0 0 0 0 0 0 0 0 0 0 0 0 0 0 0 0 0 0 0 0 0 0 0 0 ",
"0 0 0 0 0 0 0 0 0 0 0 0 0 0 0 0 0 0 0 0 0 0 0 0 0 0 0 0 0 0 0 0 0 0 0 0 0 0 0 0 0 0 0 0 0 0 0 0 0 0 0 0 0 0 0 0 0 0 0 0 0 0 0 0 ",
"0 0 0 0 0 0 0 0 3 , F V 0 A , V V V V V V V V V V V V V V V V V V V V V V V V V V V V V V V V V C V 0 2 F 3 a B 0 0 0 0 0 0 0 0 ",
"0 0 0 0 0 0 0 0 D 0 0 8 r r < S q q q q q q q q q q q q q q q q q q q q q q q q q q q q q q q q 8 Z p ; C > s V 0 0 0 0 0 0 0 0 ",
"0 0 0 0 0 0 0 0 2 0 f g 6 6 g ; w w w w w w w w w w w w w w w w w w w w w w w w w w w w w w w w w 8 4 w R 4 z C 0 0 0 0 0 0 0 0 ",
"0 0 0 0 0 0 0 0 d @X.X).4X5XXX>X#X#X#X#X#X#X#X#XoXoXoXoXoXoXoXoXoXoXoXoXoXoXoXoXoXoXoXoXoXoXoXoX,X>XOXXX-X[.{.c.0 0 0 0 0 0 0 0 ",
"0 0 0 0 0 0 0 0 d .XqX5X=X[.*X@X:X:X:X:X:X:X:X:X2X2X2X2X2X2X2X2X:X:X:X:X:X$X$X$X:X:X:X:X:X:X:X:X|.,XOX{.-XqXqX9.0 0 0 0 0 0 0 0 ",
"0 0 0 0 0 0 0 0 R ^.;X~.:.%.%.~ Q Q Q Q Q Q Q Q ' ' ' ' ' ' ' ' ' ' ' ' ' ' ' ' ' ' ' ' ' ' ' ' [ I ..j.H.'.9X-.0 0 0 0 0 0 0 0 ",
"0 0 0 0 0 0 0 0 8 7X}.m H.A.$ ;.+.+.+.+.+.+.+.+.+.+.+.+.+.+.+.+...............+.................#.z 1.A.q.T.0Xc.0 0 0 0 0 0 0 0 ",
"0 0 0 0 0 0 0 0 r &X*Xb ~ _.z.r U U U U U U U U U U U U U U U U P P P P P P P P P P P P P P P P K ;.I.Z.i Y.0X=.0 0 0 0 0 0 0 0 ",
"0 0 0 0 0 0 0 0 w OX#Xl Y ^ l.E.d.V.z.B.z.V.g.N.n.n.N.B.B.B.B.B.Z.n.V.z.C.z.B.n.V.z.V.n.B.z.V.g.A.!.O.{ r K.7Xy.< 0 0 0 0 0 0 0 ",
"0 0 0 0 0 0 0 0 w $X#Xl Y K k.R.*.p.6.u.6.p.*.r.r.r.r.r.r.r.r.r.u.6.u.*.p.*.u.6.p.6.p.r.p.6.p.*.d.L.( ) r K.7Xy.< 0 0 0 0 0 0 0 ",
"0 0 0 0 0 0 0 0 w $X#XI P D t.F.8 P r K r P r J r r Z S J J S S K r K r U r J r P r U Z J r U r 7.A.I ) g P.7X0.< 0 0 0 0 0 0 0 ",
"0 0 0 0 0 0 0 0 w $X;XI P D r.m.0 L 0 Z 0 L 0 Z Z Z Z Z Z Z Z Z L Z L 0 L Z L Z L 0 L Z S 0 L 0 4.V.I ) G P.7X0.< 0 0 0 0 0 0 0 ",
"0 0 0 0 0 0 0 0 w $X;XI Y D t.m.r ( S Y K ` D Y P P P P Y Y P P ( K ( S ` K Y K ` D ` K Y S ( S 5.C.I ) g L.7X0.< 0 0 0 0 0 0 0 ",
"0 0 0 0 0 0 0 0 w $X#XI Y D t.m.1 K p D p P u K p p p D D D D D D p K q K u D p K q K p K u K q =.Z.J / e P.7Xy.< 0 0 0 0 0 0 0 ",
"0 0 0 0 0 0 0 0 w OX#XI P D t.F.q Y S P J ( J Y J J K K K K K K P J Y p Y S K S Y p Y J Y S Y p =.Z.J / r P.7X0.< 0 0 0 0 0 0 0 ",
"0 0 0 0 0 0 0 0 w $X#Xl K D r.m.8 U r J G Y Z U J J J J J J J J U G U r Y G U G U r U G U r U r 5.C.U ] G L.8X6.< 0 0 0 8 0 0 0 ",
"0 0 0 0 0 0 0 0 8 2X:Xk K K i.A.8 U r J p ( j I r G J J J J G r U J U r U G J G I p I j K r U r ..K.J / w S.0Xq.< 0 0 0 8 0 0 0 ",
"0 0 0 0 0 0 0 0 j 2X;X! o.J ;.A.r Y J P J ( J Y U U U U U U U U Y J Y Z E J Y J Y p Y K U Z Y Z 5.P.g O.J P.0X$.< 0 0 0 8 0 0 0 ",
"0 0 0 0 0 0 0 0 ; $X Xh o.K &.V.0 L 0 S r P r K Z Z Z Z Z Z Z Z L Z L 0 L Z L Z L q L Z J 0 L 0 ..N.; ( 8 P.7Xy.< 0 0 0 0 0 0 0 ",
"0 0 0 0 0 0 0 0 ; 4X<Xh o.( t.A.Z E S P S ` S Y J L L L L L L J P J Y Z E S P S Y S Y L Y S E Z 6.P.J @.0 K.6Xa.< 0 0 0 8 0 0 0 ",
"0 0 0 0 0 0 0 0 e 3X>Xk U p &.A.r E D P D ( D ^ K K K K K K K K P D P r P p K S ^ p ^ D Y S Y Z ..N.J @.G I.6Xy.< 0 0 0 0 0 0 0 ",
"0 0 0 0 0 0 0 0 r |. X! Y 1 *.R.* p 5 y : a : i : : 5 5 5 5 5 5 y : y = i : y : i = i 5 i : p : 7.z.p i e Q.0X0.< 0 0 0 0 0 0 0 ",
"0 0 0 0 0 0 0 0 G .X;X[ ] _ U.R.u.b.f.h.s.b.s.h.s.s.s.s.s.s.s.s.h.s.h.s.N.s.h.s.h.s.h.s.h.f.b.p.G.E.t.a r L.0X0.< 0 0 0 0 0 0 0 ",
"0 0 0 0 0 0 0 0 w OX3Xz 5 #.J.3.} 4.} X.} <.n >. . . . . . . . .>. .>.n <.| >.| >.m >.| >.} 4.} M x.l.v K S.0X0.< 0 0 0 0 0 0 0 ",
"0 0 0 0 0 0 0 0 f 3XwXx i.M.N   & & & & & & O O & & & & & & & & & & & & & & & & O O & & & & & & > @ 8.D.% Y.1X1.0 0 0 0 0 0 0 0 ",
"0 0 0 0 0 0 0 0 f +X8Xw.v.x . 0 * * * * * * * * = = = = = = = = = = = = = = = = * * * * * = = * & & i 8.e.(.%X2.0 0 0 0 0 0 0 0 ",
"0 0 0 0 0 0 0 0 l `.0XV.T X 5 < * * * * * = * * = = = = = = = = = = = = = = = = * * * * * * * * < O * c ,.|.9X2.0 0 0 0 0 0 0 0 ",
"0 0 0 0 0 0 0 0 4 W./.7 8 - = ; * * * * * * * * * * * * * * * * * * * * * * * * * * * * * * * * 8 ; * + # D.].X.0 0 0 0 0 0 0 0 ",
"0 0 0 0 0 0 0 0 C 5 c : o + a O ; ; ; * * * * * * * * * * * * * * * * * * * * * * * ; ; * * * * + : o & y - 4 J 0 0 0 0 0 0 0 0 ",
"0 0 0 0 0 0 0 0 0 0 & & p = X 9 ; ; ; ; * * * * * * * * * * * * * * * * * * * * * * * * * * ; ; @ = ; 8 8 * * 0 0 0 0 0 0 0 0 0 ",
"0 0 0 0 0 0 0 0 Z C A Z 1 9 q ; ; ; ; ; * * * * * * * * * * * * * * * * * * * * * * * * ; ; ; ; t ; C 0 * S W 0 0 0 0 0 0 0 0 0 ",
"0 0 0 0 0 0 0 0 1 V 2 2 q 0 2 A q 9 9 9 1 ; ; ; * * * * * * * * * * * * * * * * ; ; < 1 9 9 9 q 0 C V 0 J q & V 0 0 0 0 0 0 0 0 ",
"0 0 0 0 0 0 0 0 0 0 0 0 0 0 0 0 0 0 0 0 0 0 0 0 0 0 0 0 0 0 0 0 0 0 0 0 0 0 0 0 0 0 0 0 0 0 0 0 0 0 0 0 0 0 0 0 0 0 0 0 0 0 0 0 ",
"0 0 0 0 0 0 0 0 0 0 0 0 0 0 0 0 0 0 0 0 0 0 0 0 0 0 0 0 0 0 0 0 0 0 0 0 0 0 0 0 0 0 0 0 0 0 0 0 0 0 0 0 0 0 0 0 0 0 0 0 0 0 0 0 ",
"0 0 0 0 0 0 0 0 0 0 0 0 0 0 0 0 0 0 0 0 0 0 0 0 0 0 0 0 0 0 0 0 0 0 0 0 0 0 0 0 0 0 0 0 0 0 0 0 0 0 0 0 0 0 0 0 0 0 0 0 0 0 0 0 ",
"0 0 0 0 0 0 0 0 0 0 0 0 0 0 0 0 0 0 0 0 0 0 0 0 0 0 0 0 0 0 0 0 0 0 0 0 0 0 0 0 0 0 0 0 0 0 0 0 0 0 0 0 0 0 0 0 0 0 0 0 0 0 0 0 ",
"0 0 0 0 0 0 0 0 0 0 0 0 0 0 0 0 0 0 0 0 0 0 0 0 0 0 0 0 0 0 0 0 0 0 0 0 0 0 0 0 0 0 0 0 0 0 0 0 0 0 0 0 0 0 0 0 0 0 0 0 0 0 0 0 ",
"0 0 0 0 0 0 0 0 0 0 0 0 0 0 0 0 0 0 0 0 0 0 0 0 0 0 0 0 0 0 0 0 0 0 0 0 0 0 0 0 0 0 0 0 0 0 0 0 0 0 0 0 0 0 0 0 0 0 0 0 0 0 0 0 ",
"0 0 0 0 0 0 0 0 0 0 0 0 0 0 0 0 0 0 0 0 0 0 0 0 0 0 0 0 0 0 0 0 0 0 0 0 0 0 0 0 0 0 0 0 0 0 0 0 0 0 0 0 0 0 0 0 0 0 0 0 0 0 0 0 ",
"0 0 0 0 0 0 0 0 0 0 0 0 0 0 0 0 0 0 0 0 0 0 0 0 0 0 0 0 0 0 0 0 0 0 0 0 0 0 0 0 0 0 0 0 0 0 0 0 0 0 0 0 0 0 0 0 0 0 0 0 0 0 0 0 ",
"0 0 0 0 0 0 0 0 0 0 0 0 0 0 0 0 0 0 0 0 0 0 0 0 0 0 0 0 0 0 0 0 0 0 0 0 0 0 0 0 0 0 0 0 0 0 0 0 0 0 0 0 0 0 0 0 0 0 0 0 0 0 0 0 ",
"0 0 0 0 0 0 0 0 0 0 0 0 0 0 0 0 0 0 0 0 0 0 0 0 0 0 0 0 0 0 0 0 0 0 0 0 0 0 0 0 0 0 0 0 0 0 0 0 0 0 0 0 0 0 0 0 0 0 0 0 0 0 0 0 ",
"0 0 0 0 0 0 0 0 0 0 0 0 0 0 0 0 0 0 0 0 0 0 0 0 0 0 0 0 0 0 0 0 0 0 0 0 0 0 0 0 0 0 0 0 0 0 0 0 0 0 0 0 0 0 0 0 0 0 0 0 0 0 0 0 ",
"0 0 0 0 0 0 0 0 0 0 0 0 0 0 0 0 0 0 0 0 0 0 0 0 0 0 0 0 0 0 0 0 0 0 0 0 0 0 0 0 0 0 0 0 0 0 0 0 0 0 0 0 0 0 0 0 0 0 0 0 0 0 0 0 ",
"0 0 0 0 0 0 0 0 0 0 0 0 0 0 0 0 0 0 0 0 0 0 0 0 0 0 0 0 0 0 0 0 0 0 0 0 0 0 0 0 0 0 0 0 0 0 0 0 0 0 0 0 0 0 0 0 0 0 0 0 0 0 0 0 ",
"0 0 0 0 0 0 0 0 0 0 0 0 0 0 0 0 0 0 0 0 0 0 0 0 0 0 0 0 0 0 0 0 0 0 0 0 0 0 0 0 0 0 0 0 0 0 0 0 0 0 0 0 0 0 0 0 0 0 0 0 0 0 0 0 ",
"0 0 0 0 0 0 0 0 0 0 0 0 0 0 0 0 0 0 0 0 0 0 0 0 0 0 0 0 0 0 0 0 0 0 0 0 0 0 0 0 0 0 0 0 0 0 0 0 0 0 0 0 0 0 0 0 0 0 0 0 0 0 0 0 ",
"0 0 0 0 0 0 0 0 0 0 0 0 0 0 0 0 0 0 0 0 0 0 0 0 0 0 0 0 0 0 0 0 0 0 0 0 0 0 0 0 0 0 0 0 0 0 0 0 0 0 0 0 0 0 0 0 0 0 0 0 0 0 0 0 "
};
