/* XPM */
static char *b9def9416d654e5dfc16df80e44aa9b42Kt9DK2Jp7hCjjsH[] = {
/* columns rows colors chars-per-pixel */
"64 64 33 1 ",
"  c #213226",
". c #2E4B37",
"X c #2F4C38",
"o c #314E39",
"O c #35523D",
"+ c #38563F",
"@ c #375640",
"# c #3C5A41",
"$ c #466F54",
"% c #486F56",
"& c #477155",
"* c #497357",
"= c #4A7658",
"- c #4C7C5A",
"; c #4E7F5B",
": c #4E7A5C",
"> c #4E7B5C",
", c #4E7D5C",
"< c #4E805B",
"1 c #4F815C",
"2 c #50825B",
"3 c #52835D",
"4 c #52855E",
"5 c #54865F",
"6 c #57895F",
"7 c #588A5F",
"8 c #598C5F",
"9 c #548760",
"0 c #578A60",
"q c #588B60",
"w c #5B8E61",
"e c #5C8F61",
"r c #5E9061",
/* pixels */
"*::=**:::::::==:::*%=:,,::,,,:=*::*:::::*%*:=**==**::=%%**=::::o",
"*:--**-<--:*-=*::=&&**--:=----=*-:*-:,-=*$*-:=&***:--*&&&--=:-,O",
"-154--4555,=--=3-*--=*=4------=*343--4-:4--343--=444-=---3:&349@",
"1---34-<,41=--143-,-=-3565--33-=-3531--14334,,3---154,=-143-344@",
"3---33--133---53331--146w6-3553:-1453-343443--43---643:-4444444@",
":,,--:444--5,16--4:-1--41<4445544,-33-65-33----35554,-3,--,454:O",
"-,3-,443-350434-:433433-3430w41-4,-343,134433313564-,344334q411O",
"-34-3453-5qq643--445654-4636w4--41-344-:44444545653-1566646e3-1O",
"w044-,wq453-43:65345r0444541:--4544:-4,--44-344qw--445rrr115335+",
"65553364144331-5541376443153,356334--4331455qq444-146www7334,-3O",
"4446544--455,14444--4444--456rre-,444454440rrw4--3447r544455---O",
"-3qe644,-43-14446eq44--444wew345344w6-3444566643344444-3550e63-O",
",35ww643343-46q446666--46wrq3-3634qr6-343651146544433343340r043O",
"41-4we44543<8rr63-36r3-17rr3--5w-5rr6-33-q6--4e6443-14w4-30e544@",
"46741-444-<346r65665333446r4---4,5e3-3q613313457we6-1454331-,35@",
"4qe4,-455,1444646w64-4634664431415w--4ew41364436rw5-346061--,34O",
"-6e64446e54441-36r643ww-5w-36eq4444444ww446r6436e--444wre--3---O",
"-5w<-<66545q531666444ww-6e46wq64w4-15q53,6q6qq44613754ew733q411O",
"-5q---w6435w634ww44446615e6we644w4-35w3--q71qw54446r04w7456e654@",
"444478466--341:444w7--,1,,wrrr64-,344333,,13--44446r4-444w61qw4O",
"43<4we433-2665-31-66113433eeq5661343146663461143367641444e73554O",
"4--4wr4<--5rrw43--34445655e74-4w644-14wre66r644--e8344433ew5--4@",
"-15w6454443-7w446w6447ee64-34--353-345e8-46rr6--133454-14ere3-4@",
"-455446643--7w446w7667qw64-35<-1332443662565w6333136w7445wq63,4@",
"454-14e74--4ww4444wrr51444444444-4e41-36rw5-36r6445rrrrw441-344O",
"44116w654-1453-4576533446863--36--144446eew611654-366605411344,O",
"1444qw66033641-5qe643136wr83--3w,--345444wwq--654-346633413665-O",
"-5w444ere45e644err56r31errr6<-4e334-3r61-ww4-3rq4444ww--4444ww4@",
"35675435644531465444566556e6314676511576-55434r647wwq61-,663454@",
"556e53--4441--443-3437w,14654544w7643177334446e64eee6341-eq1334+",
"-6e63143-553444wq477545444---w64--17ew66w--4ww64454----14eq3w7:o",
"35641-76333346755464366-<36534443576557w654343-344453,6ww434331O",
"4434--8641-145w44531-77--<ww63344qw411ww4q63---1434e64err--5--4@",
"03-w641--63-33-qee-1e6447w5wrr5-41-35ew5---444343--33347r445431O",
"433q53--4w5-331ww533w4,17e34564113466743-333457643334634633765,O",
"-46431-4rw64444e5-355---5w,--,44-4rrw3--4e6-36rq6ew4we----3rrw1O",
"14436734633414843377431356433-356666684344337w654-3633331140ew4O",
"54316w444-<534w--4q6445643355-35r7445744533466454--6--565443qq3O",
"w64-33134-3e644--1133qrr4--5e445e6341---r533--47w44433ere4,-33-o",
"36q33446w--653-13434q65641-4wwww03--3667r334--6we--4443337q6541O",
"-6q533q7713653-45545e4-455-3577q53--3wq7634633ww6--565--1qw6335#",
"e644--e5-47r04446r55r3-3we4441--36w4333---5r66r4<444qw--343--,e#",
"64364165334633756rw663367743374147r41-134335wew5446wq0333441,36#",
"3,3e64345114-3e56ee7-46w644-,ew557e53-15r63-7w44446e64544445543@",
"47q-33-4e434665ww4-<133-35e61-5rr5-3447er6434441-43-,3e61-3e65r#",
"4q6-35-4w41,66476411543-35764-4we63443we64434563-31-3465335q540#",
"44416e5444,-35544445e64-34-6w334wrr63-77-34,4we64-,456-,4w6133:O",
"-5w344-5w5317ew45e3--6wwww37e433566313543qq4-3r644453-33435w644@",
"-5w665-5w6446we4473--5w7er66q434554333445q74--w644563-345347543O",
"445ere544764-<641-34431-5re5141-e7443-16e51-3444445rq4-3e64-11:O",
"74355545653433343133,33-4qq3,4456q775-,3q751664663475456053-311O",
"r51---47e--443-34541-4543341-36e40rrq4--4w74ww37e44446eq4543344@",
"5ww434wq546e317,3ww7-6ee3-431346ww653-33-44453-6r53-5e544w5-6e5@",
"350444q6347r31q346w747ww3-345553q0531-55-3314525q53-57334e6-0w5@",
"---44441-46e41,w844qr64411-5rr5-444--4ww443-6rr6444543-,5ew4444@",
"--3-34-3443-65-65--,51-11356531-43-5644586417w43446w6463,553445+",
"-56-11-4663-66-33---3--346w63--453-6q4-1w446w7-1434w64w4-344345@",
"w654--37rrq4331--345445eee54436rrw514e-:3-3e64443---3441-36r3-3@",
"63,,57w6556w544-,w65ww7345467433544,-3334-3w3--57,--35-,3q76763O",
"4,:-qee6135e535-3e66ee7-,346w53-,343--35513q---6w31-56-15wq4qq3O",
":344444,-,35,-443-we4444--41-56643341--4e63-34e64-3e64w5:454-::O",
"-13,34,--31--363-<66-56335<1113343-33-3553,15553,-4r6453-33,--,O",
"11,:34,1453-36e,-443:0w-6w-30,--41-344w6---4w5--:35r03:-,31-359@",
"OXX.ooXoooo.ooOXXoXXXoOooooOOoX.XX.XXXoo.XXoooX..XoOooX.Xoo.ooo "
};
