/* XPM */
static char *fa838e46e87e4a20a42ce1d069a385caO6IDbnKZGc6SRaOp[] = {
/* columns rows colors chars-per-pixel */
"64 64 239 2 ",
"   c #0A0606",
".  c #17110E",
"X  c #160D15",
"o  c #191516",
"O  c #1C1917",
"+  c #1E1B18",
"@  c #141110",
"#  c #140E0D",
"$  c #371D0E",
"%  c #2C1E1A",
"&  c #271A17",
"*  c #391E17",
"=  c #27130E",
"-  c #24231B",
";  c #2E221C",
":  c #282B1B",
">  c #35251C",
",  c #3A261C",
"<  c #372819",
"1  c #2B351E",
"2  c #2A3619",
"3  c #261E25",
"4  c #1D2822",
"5  c #2B282A",
"6  c #312C2B",
"7  c #2B3322",
"8  c #2E3D21",
"9  c #2C382A",
"0  c #313D22",
"q  c #393427",
"w  c #393636",
"e  c #2F3133",
"r  c #1B211B",
"t  c #422416",
"y  c #43261A",
"u  c #442B1D",
"i  c #4C2C1C",
"p  c #4B2817",
"a  c #532D1B",
"s  c #5B2B12",
"d  c #56321D",
"f  c #5C341E",
"g  c #532D16",
"h  c #652D0B",
"j  c #62351E",
"k  c #6B3A1E",
"l  c #66381A",
"z  c #733B1B",
"x  c #472D23",
"c  c #522C20",
"v  c #563522",
"b  c #5B3422",
"n  c #583528",
"m  c #433731",
"M  c #623622",
"N  c #643A23",
"B  c #6A3B23",
"V  c #673C2A",
"C  c #653A36",
"Z  c #733E25",
"A  c #33481D",
"S  c #36571E",
"D  c #294818",
"F  c #39641E",
"G  c #2E4222",
"H  c #344222",
"J  c #354C23",
"K  c #394D25",
"L  c #394829",
"P  c #3C5226",
"I  c #3C5C29",
"U  c #3D5A27",
"Y  c #3D5035",
"T  c #3C6522",
"R  c #3D6628",
"E  c #79431E",
"W  c #425B2A",
"Q  c #464D3B",
"!  c #6D4026",
"~  c #6D422A",
"^  c #64422F",
"/  c #744226",
"(  c #75452A",
")  c #7B4729",
"_  c #7D492A",
"`  c #7C4627",
"'  c #784C35",
"]  c #644638",
"[  c #42652A",
"{  c #436B2C",
"}  c #436925",
"|  c #45722C",
" . c #4A732E",
".. c #477929",
"X. c #507A2F",
"o. c #497730",
"O. c #527D31",
"+. c #476239",
"@. c #3D3843",
"#. c #2C3356",
"$. c #373C6B",
"%. c #513D49",
"&. c #3F4048",
"*. c #39427B",
"=. c #4B4B44",
"-. c #4A4746",
";. c #585556",
":. c #4E4D53",
">. c #625C5B",
",. c #664A54",
"<. c #5A6053",
"1. c #65645D",
"2. c #575569",
"3. c #564D70",
"4. c #685A7B",
"5. c #686666",
"6. c #716D6D",
"7. c #71766A",
"8. c #68677A",
"9. c #777574",
"0. c #70726A",
"q. c #81461D",
"w. c #824C2C",
"e. c #894C34",
"r. c #904D39",
"t. c #986F55",
"y. c #817D7D",
"u. c #9A7A6D",
"i. c #A37858",
"p. c #4B852B",
"a. c #51862B",
"s. c #4F8E34",
"d. c #4D8533",
"f. c #518432",
"g. c #518E35",
"h. c #5A8C35",
"j. c #559336",
"k. c #5A9637",
"l. c #5D9937",
"z. c #5B9738",
"x. c #5E9938",
"c. c #579738",
"v. c #619B37",
"b. c #619B39",
"n. c #639C39",
"m. c #629C39",
"M. c #659E39",
"N. c #639C39",
"B. c #689F39",
"V. c #639337",
"C. c #5EA03A",
"Z. c #64A33A",
"A. c #6AA13A",
"S. c #6BA23A",
"D. c #6BAA3C",
"F. c #70A63B",
"G. c #71AB3C",
"H. c #66AC41",
"J. c #A5846E",
"K. c #E6B96D",
"L. c #D09D50",
"P. c #3C4A9A",
"I. c #4E5292",
"U. c #6B6984",
"Y. c #787689",
"T. c #6F7085",
"R. c #5866B4",
"E. c #666CB5",
"W. c #5B59A8",
"Q. c #3A5CD4",
"!. c #596CC9",
"~. c #536DD4",
"^. c #6470C7",
"/. c #817E83",
"(. c #817CB5",
"). c #7B85B8",
"_. c #7884CB",
"`. c #848383",
"'. c #89878A",
"]. c #8C8A9A",
"[. c #918D96",
"{. c #959493",
"}. c #9A9898",
"|. c #918385",
" X c #AC9C97",
".X c #ADA199",
"XX c #8288B3",
"oX c #9393A9",
"OX c #A49DA4",
"+X c #A8A7A5",
"@X c #B9B8B7",
"#X c #B0AFAE",
"$X c #C1AE9A",
"%X c #ECC684",
"&X c #C2C1BD",
"*X c #DBC7A8",
"=X c #EAD9BA",
"-X c #8C97CA",
";X c #838FD8",
":X c #929CCE",
">X c #9AA5D8",
",X c #99A2CB",
"<X c #AAB1D4",
"1X c #A9B6E5",
"2X c #C1BFC3",
"3X c #BAC1D6",
"4X c #B4C4F1",
"5X c #C5C4C2",
"6X c #CBCAC6",
"7X c #CDCCCA",
"8X c #C9C7C5",
"9X c #D0CDCF",
"0X c #D2D1CD",
"qX c #C5C9D9",
"wX c #D5D4D2",
"eX c #D8D6D4",
"rX c #DBDAD5",
"tX c #DEDDDA",
"yX c #D8D8D7",
"uX c #CED0D4",
"iX c #E1DFDB",
"pX c #DFE0DA",
"aX c #E3E2DD",
"sX c #E7E5DB",
"dX c #F5E8CE",
"fX c #DBDDE6",
"gX c #C8CFE3",
"hX c #DDE1EA",
"jX c #E5E4E1",
"kX c #EBEAE5",
"lX c #EEEDE9",
"zX c #E6E5E5",
"xX c #F0EFEA",
"cX c #F1EEE5",
"vX c #F3F2EC",
"bX c #F9F6EC",
"nX c #FBFAF4",
"mX c #F9F8F5",
"MX c #ECEFF1",
/* pixels */
"A.F.S.F.S.b.x.x.x.b.b.x.x.b.m.x.k.b.b.b.m.x.l.m.m.A.S.A.Z.Z.A.x.l.l.l.x.x.m.B.m.b.x.j.l.x.b.m.b.b.x.j.k.l.l.m.b.k.k.j.k.x.x.M.M.",
"M.F.S.F.S.m.b.b.b.b.b.k.j.M.A.A.A.j.j.b.M.k.j.b.M.b.b.k.h.V.V.h.h.f.d.h.V.B.G.m.j.j.j.l.Z.M.M.x.j.j.j.l.F.A.m.x.j.j.j.j.x.x.k.k.",
"b.A.A.S.S.m.b.x.x.m.m.k.j.b.M.M.M.j.j.l.m.k.j.l.v.Z.D.1 o + + + + + + + o W F.k.j.j.j.l.M.m.M.x.j.k.k.b.F.A.b.x.j.j.j.j.x.l.k.k.",
"j.j.j.b.m.b.x.k.k.A.A.k.j.j.j.j.j.j.j.j.j.b.M.j.j.O. .: o O O O O O O O o 0 - I C.k.x.l.k.x.M.M.M.A.S.S.F.A.k.k.k.k.M.b.j.j.j.j.",
"j.j.j.b.b.m.m.k.k.A.A.k.j.j.j.j.j.j.j.j.j.b.M.j.c.1 X O O + O O O O O O O o o : { x.x.x.z.x.m.m.M.M.S.A.A.M.k.k.k.z.M.v.j.j.j.j.",
"k.x.l.j.j.S.S.A.A.l.l.z.z.j.j.k.x.b.m.l.l.m.A.k.x.H o + O + + + O O O O O + + X J Z.b.x.z.k.j.k.M.b.x.k.j.j.k.k.x.x.j.j.k.k.x.x.",
"k.x.x.j.j.A.S.A.A.l.k.z.z.j.j.k.x.b.m.x.x.m.M.k.x.8 o O o o o o o o o o O O + o J Z.b.x.x.k.j.k.M.b.x.k.j.j.z.k.x.x.j.j.k.k.x.x.",
"b.b.b.k.k.j.j.x.x.k.k.k.l.b.m.m.m.k.k.m.M.k.j.j.x.8 o > > > > > > > > > % & + X P G.A.A.S.b.j.j.x.j.j.j.j.j.j.k.M.M.m.m.m.b.j.j.",
"m.b.b.l.k.j.j.x.x.k.k.l.l.m.M.M.m.z.j.m.M.j.j.j.l.8 & V ~ ~ ~ ~ ~ ~ ~ j f > + o P G.A.S.S.m.j.j.z.j.j.j.j.j.j.k.M.M.M.m.m.b.j.j.",
"M.A.M.j.j.j.j.j.j.m.m.A.A.k.j.z.x.j.j.j.j.k.k.l.Z.H b ) _ _ _ _ _ w./ M B f i * K G.S.v.j.k.M.x.k.z.j.j.j.k.m.l.j.k.m.M.B.M.k.k.",
"M.A.M.j.j.j.j.j.j.M.M.S.S.k.j.k.x.j.j.j.j.k.k.b.D.H M _ w.w.w.w.w.w.( l B j d t K G.S.x.s.k.A.b.k.z.k.k.j.k.M.l.g.j.M.M.A.M.l.k.",
"b.b.b.k.l.M.M.k.k.l.x.A.S.M.M.k.j.x.b.x.x.x.l.k.l.H M _ _ _ ) _ _ w./ N N j f p K Z.j.x.m.m.M.x.j.k.x.b.A.M.k.l.M.v.j.k.b.b.l.z.",
"x.x.x.x.b.S.S.x.x.l.l.A.S.A.A.k.j.b.M.b.b.b.b.j.c.H * ; ; ! w.Z u ; % i B j j p P Z.s.x.A.M.A.x.j.k.b.m.S.A.k.l.S.M.j.j.x.x.l.z.",
"k.x.x.l.l.l.l.b.b.k.k.m.M.m.m.j.j.x.x.b.b.b.v.l.x.H v i t j k l a y u b B j i ; - { j.k.b.x.k.k.j.k.M.m.M.b.j.j.k.k.j.j.k.k.j.j.",
"k.x.x.k.k.j.j.m.m.j.j.m.M.m.b.j.j.k.l.b.m.m.m.x.Z.2 u.>.$ / k B / . y. Xs N a d a & | x.z.k.j.j.j.l.M.M.m.x.j.j.j.j.j.j.j.j.j.j.",
"k.k.k.M.M.k.k.x.x.j.j.k.k.k.k.b.M.x.k.k.k.k.k.b.D.2 u.5.& w.) _ _ # `..Xs N a a f * { Z.b.b.x.x.b.x.k.x.M.b.b.l.j.k.m.m.m.m.k.k.",
"l.j.j.S.A.k.k.k.k.j.j.j.j.j.k.A.F.x.k.j.j.j.j.b.D.H V ' N / w.) ! ! ' ' l N f a i & O.A.M.M.m.M.Z.m.j.k.M.M.M.b.j.k.S.A.A.B.l.l.",
"b.b.x.l.z.b.b.j.j.l.l.j.j.k.l.b.m.M.M.k.j.l.l.x.Z.H M w.u v N i , _ ` B N f a N & R C.z.x.x.m.b.l.x.b.x.k.l.M.M.m.m.l.x.B.M.l.l.",
"m.B.M.j.j.A.A.j.j.b.b.j.j.l.x.l.l.A.S.k.j.x.b.l.Z.0 V w.b , , , ! w._ / N d % * U x.j.k.k.x.M.b.k.l.A.m.j.k.M.A.F.A.j.k.B.M.v.v.",
"b.x.x.j.j.k.k.k.k.m.M.k.j.k.l.k.j.b.m.l.x.b.m.l.m.U u ` B v v v N ( ) N B a 8 | x.x.x.x.k.k.x.k.k.k.k.k.k.k.x.x.x.l.j.k.M.M.k.k.",
"m.k.k.j.j.j.j.k.x.A.A.k.k.k.k.j.j.k.l.m.m.m.m.l.x.h.& b N C C C ( ) ( N N & U D.j.b.A.b.k.k.j.j.k.j.g.j.x.l.k.k.j.j.g.j.M.m.j.j.",
"x.x.x.k.k.k.k.m.m.b.m.k.j.k.l.l.x.l.l.k.k.m.M.l.x.m.U & N e.r.r.) B B j , , - [ l.j.m.x.j.j.j.j.k.k.k.k.k.k.l.k.j.j.k.z.m.b.x.b.",
"x.x.x.x.x.x.x.S.S.k.k.j.j.l.b.M.A.x.l.j.j.M.A.m.k.p.9 r ; a p p i j d % u V XX5.4 5 R p.g.c.j.j.j.k.b.x.j.j.x.k.g.j.m.m.m.m.S.S.",
"l.x.l.b.b.x.x.m.m.x.x.j.j.l.l.x.x.k.k.j.j.l.b.x.W :.:X>X:.% i i i > % y l %.-XqX>X1X6.=.+.j.z.k.l.x.b.b.x.l.k.k.j.j.M.b.k.l.A.A.",
"k.l.l.A.B.M.m.k.l.x.x.j.j.k.l.j.j.j.j.k.k.k.x.[ {.mXvXbX;X$.$ , > > s h ,.R.,XcXbXbXxXjX{.P x.x.M.M.b.M.S.M.j.j.j.k.A.M.j.j.A.A.",
"l.b.b.M.M.l.k.k.k.b.b.x.x.l.l.z.z.x.x.k.k.x.{ '.mXlXlXvX_.R.C h j h C 3.W.^.sXxXkXxXtX7XtX`.I Z.l.b.m.m.b.l.j.j.x.x.x.l.j.j.x.x.",
"x.M.M.m.b.j.j.g.j.x.b.M.A.x.k.m.m.M.M.l.k.Z.G 9XmXlXlXvXqX!.,Xi.q.' P.Q.Q.<XxXlXlXvXlXaX0XtX9.S x.l.A.b.j.j.j.k.S.M.g.j.j.j.g.g.",
"b.b.b.k.k.j.j.z.x.b.b.l.k.k.k.k.k.l.l.k.x.| 0.aXtXkXlXxXvXyX,XE.W.(.gXqXuXkXlXlXkXtXvXvXiX0XwX5.{ x.z.l.m.x.j.j.z.k.k.k.x.x.x.l.",
"M.x.x.j.j.j.j.m.m.b.b.j.j.k.k.j.j.k.k.j.x.J OXnX&XrXvXkXxXvXjXfXfXzXvXvX%XK.sXxXkXyXvXlXvXtXsX>X#.a.x.z.S.M.j.j.j.j.l.x.M.M.M.M.",
"M.x.x.k.k.z.z.k.k.x.b.k.j.x.m.k.j.k.k.Z...1.bXmX{.}.lX3.OXvXlXcXcXkXMX%X$X*XK.lXeX7XlXxXlXbXqX^.@.} x.k.x.x.z.k.j.j.x.l.k.z.M.M.",
"M.x.x.l.x.m.m.j.j.x.x.k.j.M.A.k.j.j.j.k.Y E.1XmX'.}.wXU.].kXkXkXkXkXMXK.|.L.L.lX&X6.6XaXkXgX!.,.k 7 x.j.j.j.m.x.g.j.b.x.j.j.A.A.",
"M.M.M.l.l.k.k.x.x.M.M.m.m.x.x.k.k.x.m.f.5 %.I.>X/.}.kXnXnXvXvXxXvXxXxXdXdX=X=XjX6X+X6.&X3X^.,.E _ u { Z.b.b.k.k.b.l.k.k.k.k.l.l.",
"A.S.S.x.l.j.j.m.m.A.A.A.A.k.j.k.l.b.D.G y l b %.I.2.}.8.#X7X7XyX2XeXeX].9XzXfXkX0XwX=.&.E.#.g w._ c K G.B.M.j.k.F.M.j.j.k.j.j.j.",
"m.M.M.x.l.j.j.x.l.x.l.m.M.b.x.m.m.D.o.x _ _ ` l a q '.8.8.2.Y.Y.}.].T.U.T.[.Y.vX0X7X;.T 7 , ( _ ! i P D.v.l.j.j.l.z.j.j.l.l.x.b.",
"x.M.m.x.l.j.j.k.k.j.j.b.m.M.S.z.k.K - , ! _ ) / t q '.8.Y.Y.].Y.OX2.Y.oXT.@XT.jXtX`.I D.R b w.) ! y P D.k.k.j.j.j.j.j.k.v.b.A.A.",
"k.x.x.M.m.k.j.k.z.x.x.x.x.M.O.q q B / i i ( B y [ L @X5X7X7X9X9X7X@XwXrX5XeX7XkXaX6.T x.A M w.) N 1 b.M.k.k.k.k.k.k.j.k.k.k.b.b.",
"j.j.k.S.S.k.j.l.l.M.M.x.k.Z.0 Z w.N , f j f y U x.[ {.nXvXvXvXvXvXmXvXxXvXlXvXiXeX9.} | >.t.z / u [ S.m.j.k.m.b.b.l.k.k.j.j.k.l.",
"b.x.l.x.x.k.k.l.l.M.A.l.Z.{ v _ ) , > ! u 1 [ x.m.p.=.jXkXkXsXjXjXjXaXwXaXkXtX6XwX5.D Q eXsXt.( < h.x.z.k.l.l.l.M.v.j.k.k.k.l.l.",
"A.m.m.j.j.k.k.l.l.S.S.v.Z.P a ) / N i , J x.j.b.S.| 1.kXlXkX0X5X6X6X0XyXkXzX6X6X`.& x y t.kXnXy.S Z.g.j.m.v.l.v.A.M.j.j.k.k.l.l.",
"M.x.x.b.b.l.k.k.k.x.b.x.m.O.> f i % * P l.k.j.z.Z.L 5XkXtXlXkXaXiXaXkXkXkXwX6X&X6 f _ w.z J.rX<.a.m.z.x.l.l.l.l.l.k.k.k.x.l.j.j.",
"M.j.k.S.A.x.l.j.j.j.j.m.b.D.f.: - { o.b.M.k.k.x.| 5 ;.;.`.6XjXvXxXlXlXsXwX7X7X5Xm , N _ ) ` ] J D.b.M.m.j.k.l.k.j.j.k.l.A.M.j.j.",
"m.b.b.A.M.b.x.j.j.k.k.k.k.x.Z.k.k.m.Z.l.k.j.x.F 7.wX5X6X&X}.@X5X&X&X&X&X@X@X@X#X6 u N b ) B : k.z.x.m.b.l.l.v.l.j.k.b.l.l.l.j.j.",
"x.A.A.A.A.M.M.k.k.x.x.j.j.k.k.m.M.M.B.j.g.x.| 9.mXmXvXvXvX@X}.#XOX+XOXOX}.'.'.T.; d d N f i U l.j.k.b.v.M.m.n.v.j.k.S.M.j.j.k.k.",
"M.A.A.b.x.b.b.k.k.b.m.l.l.l.k.k.k.l.l.k.x.| - 6.6.5XmXkXkXlXtXrXpXpXaXaXaXaXsX_.$.O d f * K l.l.k.l.b.b.x.l.v.b.b.l.l.l.k.k.b.b.",
"S.S.A.j.j.x.x.l.l.M.M.M.M.l.k.j.j.j.j.l.Z.K c k j ^ 6.kXlXaX7X{.rXvXkXlXkXkXlXgX;X9.O : W m.l.l.m.b.m.b.k.l.M.M.S.M.j.j.x.b.A.A.",
"m.M.M.b.x.x.x.l.l.x.l.x.v.l.l.k.k.j.j.Z. .x w.w.w._ p {.lX5X0X'.9.vXkXkXkXkXkXaX:X/.} Z.l.x.k.l.M.b.k.k.l.l.l.l.m.l.k.k.j.k.x.x.",
"l.k.l.A.A.b.b.m.b.j.j.k.k.b.m.x.l.j.j.Z. .t q.q.E k t m @X6X0X6.:.yXsXkXkXkXlXaX-X[.W b.j.j.k.x.A.b.j.j.v.l.j.k.k.k.x.k.g.j.j.j.",
"x.x.x.A.A.k.k.l.l.x.x.k.k.l.v.m.M.l.k.Z.} @.4.4.4.3.q 5 y.=.w [ U '.kXsXsXkXqXW.XX>X;...x.k.k.l.x.x.k.k.z.k.j.j.l.l.l.l.l.z.k.k.",
"x.x.l.S.S.j.j.j.k.A.A.j.j.l.l.A.S.M.M.x.F U.4X1X1X,Xe 7 0 p.p.x.T 6.rXvXmXnX-XE.<X,X=...x.k.l.k.j.k.M.b.j.j.j.j.l.x.l.l.A.M.k.k.",
"m.m.m.m.m.l.z.j.j.b.b.z.k.x.l.M.B.x.z.x.} *.~.!.!.~.P.S x.k.x.j.x.G 5.}.{.{.{.{.}.;.2 k.l.l.l.l.z.l.l.z.j.j.j.j.k.k.k.k.l.l.l.v.",
"S.S.A.j.j.S.S.j.j.k.k.M.M.b.b.m.m.j.j.H.T '.hXqXqX3X].S x.k.l.j.j.o.T D = $ $ $ < = ..Z.S.M.k.l.A.b.j.j.j.j.j.j.j.j.k.j.s.j.S.S.",
"M.B.M.k.k.b.b.j.k.x.x.l.l.z.k.b.b.Z.f.S D Q &XvXsXrX}.A Z.z.v.k.j.j.Z.| % N ! N j ^ +.j.M.v.l.b.M.l.j.j.j.j.k.k.k.k.l.k.j.j.M.M.",
"l.M.m.l.k.j.j.k.l.M.M.j.j.j.j.x.Z.S Q '.>.# w jXlX5X<.X.A.m.M.l.k.k.k.h.7 n N b x oX1...x.z.M.b.l.k.j.j.l.l.M.m.l.x.m.x.j.j.k.l.",
"x.m.b.k.k.k.k.l.x.x.x.j.j.k.k.m.A %.rXjXw @ + 5.0X#X8 Z.l.l.l.l.k.k.k.Z.I 5.XXXX).3X#XY l.b.M.x.k.k.j.k.l.l.x.l.l.l.x.k.j.j.x.l.",
"m.l.l.j.j.M.M.M.m.j.j.j.j.z.D.} w }.+X`.;.1.e ;.-.3 0 l.k.j.j.x.m.l.l.x.j.9 <XsXpXaX@XH Z.M.A.l.s.j.l.l.x.k.s.j.l.k.j.j.j.j.l.l.",
"b.k.k.k.k.x.x.l.x.k.j.k.k.m.j.Q 8X-.  w vXmX5.rX@Xe 8 x.k.k.k.x.m.l.k.k.x.R 2.aX0XaXwX1.O.Z.M.v.j.k.k.k.x.l.k.k.l.l.k.k.j.k.k.k.",
"l.g.j.M.M.j.j.j.j.m.m.M.M.D.a.;.mXw   =.aXmX5.5XvX-.2 c.g.x.M.m.M.k.g.j.x.d.Y 6XnXmXvX}.T Z.k.b.S.b.j.j.l.b.S.M.l.x.M.M.k.k.j.j.",
"l.j.k.M.M.k.j.k.k.x.x.b.b.m.a.=.+X>.-.y.+X@X-.-.+X6 : x.k.x.M.m.m.l.k.k.j.C.T -.y.9.9.-.J x.k.l.m.l.j.k.k.l.M.m.k.l.M.M.l.l.j.j.",
"z.M.m.M.M.j.j.M.m.j.j.k.l.j.d.+ # 6XnX`.@ O o o O - | m.B.M.M.m.b.M.S.b.j.Z.X.X + + o o + f.x.k.j.j.l.k.j.j.b.x.j.k.A.B.B.M.l.l.",
"l.m.b.m.m.k.k.x.x.k.j.k.l.k.k. .+ }.nX5X@ @ -.@X:.T C.z.b.m.M.b.l.b.M.l.k.f.9 w @.@.w 6 3 f.x.k.j.k.l.k.j.k.x.l.k.l.M.M.M.M.l.l.",
"b.m.v.k.k.b.b.j.j.m.m.k.j.b.M.Z. .6 }.'.;.;.'.y.- d.j.j.j.v.A.j.g.j.j.k.x.7 3 6 5 5 5 3 7 h.j.j.l.l.b.l.l.l.s.j.b.x.k.l.m.b.k.l.",
"b.b.l.l.l.b.b.j.k.b.b.k.k.x.b.b.Z.H O 7 7.7.0 - d.l.j.j.j.l.M.k.j.k.k.k.x.J 1 1 1 1 8 1  .Z.j.k.l.l.l.l.l.l.k.k.b.x.k.k.M.m.b.b.",
"x.j.j.M.M.b.v.z.k.k.k.l.l.j.j.x.b.x.m.k.p.a.v.x.j.m.A.b.b.k.j.j.j.b.A.M.m.m.x.m.D.A.A.m.k.l.M.b.b.l.k.k.j.x.S.A.M.m.j.l.S.S.S.S.",
"x.j.k.M.M.m.b.k.k.k.k.l.l.k.j.x.m.x.b.k.c.m.m.j.j.M.A.b.b.k.j.j.j.b.A.M.M.b.k.b.B.M.M.b.j.x.M.m.b.l.k.k.k.x.S.A.M.m.j.l.S.S.S.S."
};
