/* XPM */
static char *result[] = {
/* columns rows colors chars-per-pixel */
"64 64 89 1 ",
"  c #FF553B",
". c #FF593E",
"X c #FF6533",
"o c #FF6A36",
"O c #FD6939",
"+ c #FF3F42",
"@ c #FF4244",
"# c #FF4448",
"$ c #FF5741",
"% c #FF5942",
"& c #FF5755",
"* c #FF5855",
"= c #FF5759",
"- c #FF5A5A",
"; c #FF694E",
": c #FF6C52",
"> c #FFD206",
", c #FFD409",
"< c #EED717",
"1 c #EBD41B",
"2 c #EBDD1B",
"3 c #FEE501",
"4 c #FFE717",
"5 c #FFE817",
"6 c #FFE71C",
"7 c #FFE91C",
"8 c #D7C436",
"9 c #DAC634",
"0 c #D7C338",
"q c #D7D436",
"w c #D8D536",
"e c #D7D438",
"r c #ECCC22",
"t c #FFD522",
"y c #FFD822",
"u c #EBD635",
"i c #EDD933",
"p c #ECE034",
"a c #FFEA34",
"s c #FFEA38",
"d c #615FDE",
"f c #6660C9",
"g c #746FC5",
"h c #7671C3",
"j c #7972C3",
"k c #6562DB",
"l c #6469DE",
"z c #7674DF",
"x c #7875DC",
"c c #4F4FFB",
"v c #4F59FC",
"b c #5353F5",
"n c #5151F9",
"m c #505AFA",
"M c #615FE1",
"N c #4F61FC",
"B c #5062FA",
"V c #6360E0",
"C c #6368E0",
"Z c #7573E2",
"A c #7875E0",
"S c #6565F6",
"D c #6263FA",
"F c #7979FB",
"G c #669EDB",
"H c #79ADC2",
"J c #65A6DC",
"K c #548EF5",
"L c #4F9CFC",
"P c #549FF5",
"I c #5195F9",
"U c #529EF9",
"Y c #63A5E0",
"T c #FFE6CF",
"R c #FFE8CE",
"E c #FFF9C6",
"W c #FCF6C8",
"Q c #FEF9C9",
"! c #ECE9DF",
"~ c #FFE6D1",
"^ c #FFE8D0",
"/ c #D7D7FD",
"( c #D9D9FB",
") c #EAE7E4",
"_ c #ECE9E0",
"` c #FFE8EC",
"' c #FFFCE2",
"] c #ECECFE",
"[ c #FFFFFE",
/* pixels */
"UUUUUUUUUUUUUUUUUUUUUUUUUUUUUUUUUUUUUUUUUUUUUUUUUUUUUUUUUUUUUUUU",
"UUUUUUUUUUUUUUUUUUUUUUUUUUUUUUUUUUUUUUUUUUUUUUUUUUUUUUUUUUUUUUUU",
"UUUUUUUUUUUUUUUUUUUUUUUUUUUUUUUUUUUUUUUUUUUUUUUUUUUUUUUUUUUUUUUU",
"UUUUUUUUUUUUUUUUUUUUUUUUUUUUUUUPJYPUUUUUUUUUUUUUUUUUUUUUUUUUUUUU",
"UUUUUUUUUUUUUUUUUUUUUUUUUUUUUULYqqYLLLUPUUUUUUUUUUUUUUUUUUUUUUUU",
"UUUUUUUUUUUUUUUUUUUUUUUUUUUPJJYH22HYJJPUUUUUUUUUUUUUUUUUUUUUUUUU",
"UUUUUUUUUUUUUUUUUUUUUULUUULYq22233222qYLUUUUUUUUUUUUUUUUUUUUUUUU",
"UUUUUUUUUUUUUUUUUUUUUPJJJJJHp55533555iHJJJJYPUUUUUUUUUUUUUUUUUUU",
"UUUUUUUUUUUUUUUUUUUULYq2222iW''W75W''Wp2222eYLUUUUUUUUUUUUUUUUUU",
"UUUUUUUUUUUUUUUUUUUPYHp533>tR``T55R``~t,335pHJPUUUUUUUUUUUUPUUUU",
"UUUUPUUUUUUUUUUUUUUJqpWQ5,  *==;,,;-;-%O,7WWiqJLUUUUUUUUUUUUPUUU",
"UUUUUUUUUUUUUUUUUUUJ24R^6, ++ + tt @##@.>7^^62JLUUUUUUUUUUUUUUUU",
"UUUUPUUUUUUUUUUUUULJ2,::,> ++++&^^-@@##.>,;;,2JLUPUUUUUUUUUUUUUU",
"UUUUUUUUUUUUUUUULPYH2>.$tyX    ;^^:....Oyt  >2HYPUUUUUUUUUUUUUUU",
"UUUUUUUUUUUUUUUUUJq23,.=^Wy>>>>,66,>,,>yQ^-$>32eYLUUUUUUUUUUUUUU",
"UUUUUUUUUUUUUUUULJ232rO:^Wu13333>>33331uW^:Or232JUUUUUUUUUUUUUUU",
"UUUUUUUUUUUUUUUUUJ2<HHr,6uff133,XX,331ffu7,rHH22JUUUUUUUUUUUUUUU",
"UUUUUUUUUUUUUUUUUYwwYY2331ff133,XX,331ff1332JYwqJUUUPUUUUUUUUUUU",
"UUUUUUUUUUUUUUUUPPYYUJ2333113333>,3333113332JUJJPUUUUUUUUUUUUUUU",
"UUUUUUUUUUUUUUUUUUUUUYe22211111111111111222qJLULUUUUUUUUUUUUUUUU",
"UUUUUUUUUUUUUUUUUUUUUPYJJGlkVkkkkkkkkkklGJJYPLUUUUUUUUUUUUUUUUUU",
"UUUUUUUUUUUUUUUUUUUUUUIIIKCkkkkkkkkkkkVCKIIIUPUUUUUUUUUUUUUUUUUU",
"UUUUUUUUUUUUUUUUUUUUUIBmvC01111111111110lvvvIUUUUUUUUUUUUUUUUUUU",
"UUUUUUUUUUUUUUUUUUUUIKlkkhi777556666775ihlklKIUUUUUUUUUUUUUUUUUU",
"UUUUUUUUUUUUUUUUUUUIBC811iQ''''''''''''Wu118CNIUUUUUUUUUUUUUUUUU",
"UUUUUUUUUUUUUUUUUUIKlj9<<u'[[[[[[[[[[[['s75ijCKIUUUUUUUUUUUUUUUU",
"UUUUUUUUUUUUUUUUUIBC99hkkA][[[[[[[[[[[[['''Wi8lNIUUUUUUUUUUUUUUU",
"UUUUUUUUUUUUUUUUIKCh98VnMz_'[[[[[[[[[[''''['aihCKIUUUUUUUUUUUUUU",
"UUUUUUUUUUUUUUPINl99jknV8<6s'[[[[[[[['a66a'['Wi8lNIUUUUUUUUUUUUU",
"UUUUUUUUUUUUUUUKCh98Vbkj8<37W''''''''E636aQ'['aigkIIUUUUUUUUUUUU",
"UUUUUUUUUUUUUIBC89hVbV09hj13667766666636EQaa'['Wi8lBUUUUUUUUUUUU",
"UUUUUUUUUUUUUUmk11knVh99Mk13331165663336''aaQ'['51kmLUUUUUUUUUUU",
"UUUUUUUUUUUUUIvk11kV09hVnk133<hx!''Q5336'['Waa''71kvIPUUUUUUUUUU",
"UUUUUUUUUUUUIKCjiuCk<1VnVj8119gA(]'Qs66sQ'['66''sujCKIUUUUUUUUUU",
"UUUUUUUUUUUINl0iQ)DV11CM89hVkh99ZAiaQ''Qaa''66'['Wi0lBIUUUUUUUUU",
"UUUUUUUUUUUImk17']Ajiijg99VccV99gg8i'[['ss''saW'['71kmIUUUUUUUUU",
"UUUUUUUUUUUImk17''uuWWi8jVbnnbMh99hA][[[''[['Eas''71kvIUUUUUUUUU",
"UUUUUUUUUUUImk15''77''71knnbbncV99MD/][[[[[[['66''71kmIUUUUUUUUU",
"UUUUUUUUUUUImk17''66''71knnnnnnnMMbbSF][[[[[['66''71kmIUUUUUUUUU",
"UUUUUUUUUUUIvk17''66''71kcnbnbdkkkkdbB/][[[[['66''71kmIUUUUUUUUU",
"UUUUUUUUUUUImk17''66''71kcbncd0111<9MbSF][[[['66''61kmIUUUUUUUUU",
"UUUUUUUUUUUImk17''76''71xDbnnk13<110MnnD(][[['66''71kmIUUUUUUUUU",
"UUUUUUUUUUUImk17''76''76!/Dcnk<<jVMMbnnnDF][['66''71kmIUUUUUUUUU",
"UUUUUUUUUUUImk15''66''66']FDnk1<jkkMbnnncD/]['66''7<kmIUUUUUUUUU",
"UUUUUUUUUUUImk17''66''66'[]/Dd13<<<0MnbncnSF]'66''71kmIPUUUUUUUU",
"UUUUUUUUUUUImk17''saQQssW'[]Fz13<1<9MnnbddbS)Qas''71kmIPUUUUUUUU",
"UUUUUUUUUUUImk17'['QasQQaa'[]!61jdkMbnnM99dVuaQ'['71kmIUUUUUUUUU",
"PUUUUUUUUUUIBl0iW'['66''aaW'['61dnbnnbMj99dk16_]'Wi0lBIUUUUUUUUU",
"UUUUUUUUUUUUUKCjis''76'['Qaa''71kcccnd99jVbk1<xAuujCKIUUUUUUUUUU",
"UUUUUUUUUUUUUImk17''ss'[['aaQE6<hkkkkh99MnnV00Mk11CvIUUUUUUUUUUU",
"UUUUUUUUUUUUUImk15'[''[[[['Qa633<111<9hMbnnbVVnk11kmIUUUUUUUUUUU",
"UUUUUUUUUUUUUIBC8iW'[[[[[[['a6336766<0MnnnbnnbVj98lBIUUUUUUUUUUU",
"UUUUUUUUUUUUUIIKCjia'[[[[[[['E66E''!xMbnnnbnnV99jCKIUUUUUUUUUUUU",
"UUUUUUUUUUUUUUPINl8iW'[[[[[[['ss'[[]FDnnnnnbVj99CBIUUUUUUUUUUUUU",
"UUUUUUUUUUUUUUUUIKChia'[[[[[[[''[[[[]/DnnnnV99jCKIUUUUUUUUUUUUUU",
"UUUUUUUPUUUUUUUUUINl8iQ'''[[[[[[[[[[[]FSCkVg90CmIUUUUUUUUUUUUUUU",
"UUUUUUUUUUUUUUUUUUIKChi77s'[[[[[[[[[[[])u119jCKUUUUUUUUUUUUUUUUU",
"UUUUUUUUUUUUUUUUUUPIBC0<1iW''''''''''''Wi119CBIUUUUUUUUUUUUUUUUU",
"UUUUUUUUUUUUUUUUUUUUIKlkkhi565575776765ijkkCKIUUUUUUUUUUUUUUUUUU",
"UUUUUUUUUUUUUUUUUUUUUIBmvC01111<11111118CmmBIPUUUUUUPUUUUUUUUUUU",
"UUUUUUUUUUUUUUUUUUUUUIIIIKlkkkkkkkkkkkklKIIIPUUUUUUUUUUUUUUUUUUU",
"UUUUUUUUUUUUUUUUUUUUUUUUUIBmmmmmmmmmvvmBIUUUUUUUUUUUUUUUUUUUUUUU",
"UUUUUUUUUUUUUUUUUUUUUUUUUUIIIIIIIIIIIIIIUUUUUUUUUUUUUUUUUUUUUUUU",
"UUUUUUUUUUUUUUUUUUUUUUUUUUUUUUPUUPUUULPPUUUUUUUUUUUUUUUUUUUUUUUU"
};
